<svg xmlns="http://www.w3.org/2000/svg" viewBox="0 0 26 7" shape-rendering="crispEdges"><title>Pane</title><g fill="#fff"><rect x="0" y="0" width="1" height="1"/><rect x="1" y="0" width="1" height="1"/><rect x="2" y="0" width="1" height="1"/><rect x="3" y="0" width="1" height="1"/><rect x="0" y="1" width="1" height="1"/><rect x="4" y="1" width="1" height="1"/><rect x="0" y="2" width="1" height="1"/><rect x="4" y="2" width="1" height="1"/><rect x="0" y="3" width="1" height="1"/><rect x="1" y="3" width="1" height="1"/><rect x="2" y="3" width="1" height="1"/><rect x="3" y="3" width="1" height="1"/><rect x="0" y="4" width="1" height="1"/><rect x="0" y="5" width="1" height="1"/><rect x="0" y="6" width="1" height="1"/><rect x="8" y="2" width="1" height="1"/><rect x="9" y="2" width="1" height="1"/><rect x="10" y="2" width="1" height="1"/><rect x="11" y="3" width="1" height="1"/><rect x="8" y="4" width="1" height="1"/><rect x="9" y="4" width="1" height="1"/><rect x="10" y="4" width="1" height="1"/><rect x="11" y="4" width="1" height="1"/><rect x="7" y="5" width="1" height="1"/><rect x="11" y="5" width="1" height="1"/><rect x="8" y="6" width="1" height="1"/><rect x="9" y="6" width="1" height="1"/><rect x="10" y="6" width="1" height="1"/><rect x="11" y="6" width="1" height="1"/><rect x="14" y="2" width="1" height="1"/><rect x="15" y="2" width="1" height="1"/><rect x="16" y="2" width="1" height="1"/><rect x="17" y="2" width="1" height="1"/><rect x="14" y="3" width="1" height="1"/><rect x="18" y="3" width="1" height="1"/><rect x="14" y="4" width="1" height="1"/><rect x="18" y="4" width="1" height="1"/><rect x="14" y="5" width="1" height="1"/><rect x="18" y="5" width="1" height="1"/><rect x="14" y="6" width="1" height="1"/><rect x="18" y="6" width="1" height="1"/><rect x="22" y="2" width="1" height="1"/><rect x="23" y="2" width="1" height="1"/><rect x="24" y="2" width="1" height="1"/><rect x="21" y="3" width="1" height="1"/><rect x="25" y="3" width="1" height="1"/><rect x="21" y="4" width="1" height="1"/><rect x="22" y="4" width="1" height="1"/><rect x="23" y="4" width="1" height="1"/><rect x="24" y="4" width="1" height="1"/><rect x="25" y="4" width="1" height="1"/><rect x="21" y="5" width="1" height="1"/><rect x="22" y="6" width="1" height="1"/><rect x="23" y="6" width="1" height="1"/><rect x="24" y="6" width="1" height="1"/><rect x="25" y="6" width="1" height="1"/></g></svg>
